<?xml version="1.0" encoding="UTF-8"?>
<svg width="42px" height="46px" viewBox="0 0 42 46" version="1.1" xmlns="http://www.w3.org/2000/svg" xmlns:xlink="http://www.w3.org/1999/xlink">
    <!-- Generator: Sketch 63.1 (92452) - https://sketch.com -->
    <title>icon-docs-warning</title>
    <desc>Created with Sketch.</desc>
    <g id="Docs" stroke="none" stroke-width="1" fill="none" fill-rule="evenodd">
        <path d="M20.5896353,0.0880784948 C20.8506086,-0.0293594983 21.1493914,-0.0293594983 21.4103647,0.0880784948 L21.4103647,0.0880784948 L41.4103647,9.08807849 C41.7692154,9.24956131 42,9.60648947 42,10 L42,10 L42,31 C42,31.2883626 41.8755196,31.5626886 41.6585046,31.7525767 L41.6585046,31.7525767 L34,38.453 L34,45 C34,45.5128358 33.6139598,45.9355072 33.1166211,45.9932723 L33.1166211,45.9932723 L33,46 L9,46 C8.44771525,46 8,45.5522847 8,45 L8,45 L8,38.454 L0.341495392,31.7525767 C0.155482569,31.5898155 0.0374542975,31.3650182 0.0075281142,31.1225193 L0.0075281142,31.1225193 L0,31 L0,10 C0,9.60648947 0.230784612,9.24956131 0.589635323,9.08807849 L0.589635323,9.08807849 Z M21,2.096 L2,10.646 L2,30.546 L9.65850461,37.2474233 C9.84451743,37.4101845 9.9625457,37.6349818 9.99247189,37.8774807 L9.99247189,37.8774807 L10,38 L10,44 L14,44 L14,39 C14,38.4477153 14.4477153,38 15,38 C15.5128358,38 15.9355072,38.3860402 15.9932723,38.8833789 L16,39 L16,44 L20,44 L20,39 C20,38.4477153 20.4477153,38 21,38 C21.5128358,38 21.9355072,38.3860402 21.9932723,38.8833789 L22,39 L22,44 L26,44 L26,39 C26,38.4477153 26.4477153,38 27,38 C27.5128358,38 27.9355072,38.3860402 27.9932723,38.8833789 L28,39 L28,44 L32,44 L32,38 C32,37.7528321 32.091455,37.5159767 32.2542475,37.3337683 L32.2542475,37.3337683 L32.3414954,37.2474233 L40,30.545 L40,10.646 L21,2.096 Z M21.7149037,27.3004444 L21.8,27.4 L24.8,31.4 C25.1313708,31.8418278 25.0418278,32.4686292 24.6,32.8 C24.192159,33.1058808 23.6267073,33.053113 23.2814959,32.6956754 L23.2,32.6 L21,29.667 L18.8,32.6 C18.4941192,33.007841 17.9365107,33.1155105 17.5050252,32.8690296 L17.4,32.8 C16.992159,32.4941192 16.8844895,31.9365107 17.1309704,31.5050252 L17.2,31.4 L20.2,27.4 C20.5733333,26.9022222 21.2951111,26.869037 21.7149037,27.3004444 Z M9.61289944,14.2097046 L9.70710678,14.2928932 L13,17.585 L16.2928932,14.2928932 C16.6834175,13.9023689 17.3165825,13.9023689 17.7071068,14.2928932 C18.0675907,14.6533772 18.0953203,15.2206082 17.7902954,15.6128994 L17.7071068,15.7071068 L14.415,19 L17.7071068,22.2928932 C18.0976311,22.6834175 18.0976311,23.3165825 17.7071068,23.7071068 C17.3466228,24.0675907 16.7793918,24.0953203 16.3871006,23.7902954 L16.2928932,23.7071068 L13,20.415 L9.70710678,23.7071068 C9.31658249,24.0976311 8.68341751,24.0976311 8.29289322,23.7071068 C7.93240926,23.3466228 7.90467972,22.7793918 8.20970461,22.3871006 L8.29289322,22.2928932 L11.585,19 L8.29289322,15.7071068 C7.90236893,15.3165825 7.90236893,14.6834175 8.29289322,14.2928932 C8.65337718,13.9324093 9.22060824,13.9046797 9.61289944,14.2097046 Z M25.6128994,14.2097046 L25.7071068,14.2928932 L29,17.585 L32.2928932,14.2928932 C32.6834175,13.9023689 33.3165825,13.9023689 33.7071068,14.2928932 C34.0675907,14.6533772 34.0953203,15.2206082 33.7902954,15.6128994 L33.7071068,15.7071068 L30.415,19 L33.7071068,22.2928932 C34.0976311,22.6834175 34.0976311,23.3165825 33.7071068,23.7071068 C33.3466228,24.0675907 32.7793918,24.0953203 32.3871006,23.7902954 L32.2928932,23.7071068 L29,20.415 L25.7071068,23.7071068 C25.3165825,24.0976311 24.6834175,24.0976311 24.2928932,23.7071068 C23.9324093,23.3466228 23.9046797,22.7793918 24.2097046,22.3871006 L24.2928932,22.2928932 L27.585,19 L24.2928932,15.7071068 C23.9023689,15.3165825 23.9023689,14.6834175 24.2928932,14.2928932 C24.6533772,13.9324093 25.2206082,13.9046797 25.6128994,14.2097046 Z" id="icon-docs-warning" fill="#EE5857" fill-rule="nonzero"></path>
    </g>
</svg>