<?xml version="1.0" encoding="UTF-8"?>
<svg width="34px" height="48px" viewBox="0 0 34 48" version="1.1" xmlns="http://www.w3.org/2000/svg" xmlns:xlink="http://www.w3.org/1999/xlink">
    <!-- Generator: Sketch 63.1 (92452) - https://sketch.com -->
    <title>icons-docs-tip</title>
    <desc>Created with Sketch.</desc>
    <g id="Docs" stroke="none" stroke-width="1" fill="none" fill-rule="evenodd">
        <path d="M17.3791311,7.07411323 L17.4974253,7.13175686 L31.4974253,15.1317569 C31.7743809,15.2900172 31.9570834,15.5694039 31.9942648,15.8815726 L32.0012864,16 L32.0012864,30 C32.0012864,30.2471679 31.9098314,30.4840233 31.7470389,30.6662317 L31.659791,30.7525767 L24.0011194,37.453 L24.0012864,45 C24.0012864,45.5128358 23.6152462,45.9355072 23.1179075,45.9932723 L23.0012864,46 L18.0011194,46 L18.0012864,47 C18.0012864,47.5522847 17.5535711,48 17.0012864,48 C16.4884505,48 16.0657792,47.6139598 16.0080141,47.1166211 L16.0012864,47 L16.0011194,46 L11.0012864,46 C10.4884505,46 10.0657792,45.6139598 10.0080141,45.1166211 L10.0012864,45 L10.0011194,37.454 L2.34278176,30.7525767 C2.15676893,30.5898155 2.03874066,30.3650182 2.00881448,30.1225193 L2.00128637,30 L2.00128637,16 C2.00128637,15.6810161 2.1532161,15.3837713 2.40580734,15.1966097 L2.50514743,15.1317569 L16.5051474,7.13175686 C16.774151,6.97804052 17.0967329,6.95882598 17.3791311,7.07411323 Z M22.0011194,42 L12.0011194,42 L12.0012864,43.999 L22.0012864,43.999 L22.0011194,42 Z M22.0011194,38 L12.0011194,38 L12.0012864,39.999 L22.0012864,39.999 L22.0011194,38 Z M17.0012864,9.152 L4.00128637,16.58 L4.00128637,29.546 L11.3772864,36 L16.0011194,36 L16.0011194,28.48 L11.3765913,24.7808688 C10.9453294,24.4358593 10.875408,23.8065669 11.2204176,23.375305 C11.5388879,22.977217 12.0995874,22.8870169 12.5231636,23.1468548 L12.6259814,23.2191312 L17.0011194,26.72 L21.3765913,23.2191312 C21.8078533,22.8741216 22.4371456,22.944043 22.7821552,23.375305 C23.1006255,23.7733929 23.0655453,24.3402168 22.7190647,24.6964243 L22.6259814,24.7808688 L18.0011194,28.479 L18.0011194,36 L22.6242864,36 L30.0012864,29.545 L30.0012864,16.581 L17.0012864,9.152 Z M1.39693731,9.08149545 L1.50129737,9.13398095 L3.23329737,10.1339809 C3.71158648,10.4101294 3.87545387,11.0217219 3.59930542,11.500011 C3.34288186,11.9441366 2.79722339,12.1171537 2.33763542,11.9185046 L2.23327537,11.8660191 L0.501275365,10.8660191 C0.0229862492,10.5898706 -0.140881137,9.97827812 0.135267313,9.499989 C0.391690874,9.05586339 0.937349344,8.88284632 1.39693731,9.08149545 Z M33.8673054,9.499989 C34.123729,9.94411461 34.0007511,10.5031804 33.5989295,10.8018809 L33.5012974,10.8660191 L31.7692974,11.8660191 C31.2910082,12.1421675 30.6794158,11.9783001 30.4032673,11.500011 C30.1468438,11.0558854 30.2698216,10.4968196 30.6716432,10.1981191 L30.7692754,10.1339809 L32.5012754,9.13398095 C32.9795645,8.8578325 33.591157,9.02169988 33.8673054,9.499989 Z M7.80316723,2.40235682 L7.86730542,2.499989 L8.86730542,4.231989 C9.14345387,4.71027812 8.97958648,5.3218706 8.50129737,5.59801905 C8.05717176,5.85444261 7.498106,5.73146476 7.1994055,5.32964318 L7.13526731,5.232011 L6.13526731,3.500011 C5.85911886,3.02172188 6.02298625,2.4101294 6.50127537,2.13398095 C6.94540097,1.87755739 7.50446673,2.00053524 7.80316723,2.40235682 Z M27.5012974,2.13398095 C27.945423,2.39040451 28.11844,2.93606298 27.9197909,3.39565094 L27.8673054,3.500011 L26.8673054,5.232011 C26.591157,5.71030012 25.9795645,5.8741675 25.5012754,5.59801905 C25.0571498,5.34159549 24.8841327,4.79593702 25.0827818,4.33634906 L25.1352673,4.231989 L26.1352673,2.499989 C26.4114158,2.02169988 27.0230082,1.8578325 27.5012974,2.13398095 Z M17.0012864,0 C17.5141222,0 17.9367935,0.38604019 17.9945586,0.883378875 L18.0012864,1 L18.0012864,3 C18.0012864,3.55228475 17.5535711,4 17.0012864,4 C16.4884505,4 16.0657792,3.61395981 16.0080141,3.11662113 L16.0012864,3 L16.0012864,1 C16.0012864,0.44771525 16.4490016,0 17.0012864,0 Z" id="icons-docs-tip" fill="#55D4F5" fill-rule="nonzero"></path>
    </g>
</svg>