<?xml version="1.0" encoding="UTF-8"?>
<svg width="40px" height="47px" viewBox="0 0 40 47" version="1.1" xmlns="http://www.w3.org/2000/svg" xmlns:xlink="http://www.w3.org/1999/xlink">
    <!-- Generator: Sketch 63.1 (92452) - https://sketch.com -->
    <title>icons-docs-danger</title>
    <desc>Created with Sketch.</desc>
    <g id="Docs" stroke="none" stroke-width="1" fill="none" fill-rule="evenodd">
        <path d="M32.166427,5.67373848 C32.6105559,5.93015639 32.7835799,6.47581267 32.5849366,6.93540316 L32.5324524,7.03976388 L30.6980916,10.2158803 L31.7138897,12.6773453 C31.8812016,13.0829105 31.7635937,13.5450253 31.4351895,13.8223491 L31.3404541,13.89322 L28.025,16.0812312 L30.0884573,17.2727587 C30.5325861,17.5291766 30.7056101,18.0748329 30.5069669,18.5344233 L30.4544827,18.6387841 L28.737,21.6122312 L34.1230242,31.3136753 C34.2722028,31.5823998 34.2884416,31.9023697 34.172511,32.1819554 L34.1147367,32.2990381 L26.1147367,46.1554446 C25.9353083,46.4662237 25.603112,46.6570325 25.2442587,46.6554347 L25.2442587,46.6554347 L9.11990301,46.5836379 C8.7658206,46.5820613 8.43897176,46.393355 8.26056516,46.0874989 L8.26056516,46.0874989 L0.136209508,32.1592957 C-0.0446009274,31.8493186 -0.0454538247,31.4662237 0.133974599,31.1554446 L0.133974599,31.1554446 L8.1339746,17.2990381 C8.30960603,16.9948356 8.63196691,16.8050878 8.98318007,16.7991796 L8.98318007,16.7991796 L20.077,16.6122312 L21.7942286,13.6387841 C22.0506466,13.1946552 22.5963028,13.0216312 23.0558933,13.2202745 L23.160254,13.2727587 L26.089,14.9632312 L29.5507056,12.679211 L28.6619752,10.523838 C28.560515,10.2778978 28.5618728,10.0035258 28.6620628,9.76087732 L28.7203753,9.64247521 L30.8004016,6.03976388 C31.076544,5.56147126 31.6881344,5.3975961 32.166427,5.67373848 Z M20.3989104,18.6075461 L9.58315878,18.7889775 L2.15565878,31.6537849 L9.69998903,44.5866216 L24.6728193,44.6529188 L32.0993193,31.7898435 L26.8482016,22.3310461 L20.3989104,18.6075461 Z M17.1434341,22.665205 C17.6956407,22.6559156 18.1508232,23.096037 18.1601126,23.6482436 C18.1687384,24.1610069 17.7898622,24.5901116 17.2935654,24.6562337 L17.177074,24.664922 L11.346947,24.7629983 C10.7947403,24.7722876 10.3395579,24.3321663 10.3302685,23.7799597 C10.3216426,23.2671964 10.7005189,22.8380917 11.1968156,22.7719695 L11.3133071,22.7632812 L17.1434341,22.665205 Z M23.0261969,15.5049525 L22.026,17.2362312 L27.222,20.2362312 L28.2223493,18.5049525 L23.0261969,15.5049525 Z M34.9171093,9.70503315 L35.02147,9.75751733 L36.9908117,10.8945173 C37.4691044,11.1706597 37.6329795,11.7822501 37.3568371,12.2605427 C37.1004192,12.7046716 36.554763,12.8776956 36.0951725,12.6790523 L35.9908117,12.6265681 L34.02147,11.4895681 C33.5431773,11.2134258 33.3793022,10.6018354 33.6554446,10.1235427 C33.9118625,9.67941387 34.4575188,9.50638986 34.9171093,9.70503315 Z M38.6048104,5.71450084 C39.1570481,5.70729475 39.6105669,6.14913021 39.617773,6.70136794 C39.6244644,7.21416013 39.243972,7.64183243 38.7474293,7.70608178 L38.6309059,7.71433059 L35.9944923,7.74873283 C35.4422546,7.75593892 34.9887358,7.31410346 34.9815297,6.76186573 C34.9748383,6.24907354 35.3553307,5.82140124 35.8518734,5.75715189 L35.9683968,5.74890308 L38.6048104,5.71450084 Z M25.3908298,4.20503315 L25.4951905,4.25751733 L27.4645323,5.39451733 C27.9428249,5.6706597 28.1067001,6.28225011 27.8305577,6.76054273 C27.5741398,7.2046716 27.0284835,7.3776956 26.568893,7.17905231 L26.4645323,7.12656814 L24.4951905,5.98956814 C24.0168979,5.71342576 23.8530228,5.10183536 24.1291651,4.62354273 C24.385583,4.17941387 24.9312393,4.00638986 25.3908298,4.20503315 Z M35.1243557,0.5503268 C35.5684845,0.806744719 35.7415085,1.35240099 35.5428652,1.81199148 L35.4903811,1.9163522 L34.4903811,3.64840301 C34.2142387,4.12669563 33.6026483,4.29057079 33.1243557,4.01442841 C32.6802268,3.7580105 32.5072028,3.21235422 32.7058461,2.75276373 L32.7583303,2.64840301 L33.7583303,0.916352204 C34.0344726,0.43805958 34.646063,0.274184425 35.1243557,0.5503268 Z M27.650322,0.0960230754 C28.1443005,-0.150966173 28.7449735,0.0492581735 28.9919628,0.543236671 L28.9919628,0.543236671 L29.9919628,2.54323667 L30.0380999,2.65055451 C30.2088498,3.12122109 30.0034435,3.6555303 29.5447492,3.88487746 C29.0507707,4.13186671 28.4500976,3.93164236 28.2031084,3.43766386 L28.2031084,3.43766386 L27.2031084,1.43766386 L27.1569713,1.33034602 C26.9862214,0.859679439 27.1916277,0.325370235 27.650322,0.0960230754 Z" id="icons-docs-danger" fill="#EC4D4D" fill-rule="nonzero"></path>
    </g>
</svg>