<?xml version="1.0" encoding="UTF-8"?>
<svg width="46px" height="46px" viewBox="0 0 46 46" version="1.1" xmlns="http://www.w3.org/2000/svg" xmlns:xlink="http://www.w3.org/1999/xlink">
    <!-- Generator: Sketch 63.1 (92452) - https://sketch.com -->
    <title>icons-docs-seealso</title>
    <desc>Created with Sketch.</desc>
    <g id="Docs" stroke="none" stroke-width="1" fill="none" fill-rule="evenodd">
        <path d="M44.6410805,0 C45.5499463,0 45.9875425,1.11435473 45.3215316,1.73279349 L45.3215316,1.73279349 L39.11,7.5 L45.3215316,13.2672065 C45.9597921,13.859877 45.5844967,14.9079981 44.7521884,14.9943126 L44.7521884,14.9943126 L44.6410805,15 L26.4999991,15 L26.4999991,19 L37.6430936,19 C37.890217,19 38.1285887,19.0915045 38.3122352,19.2568658 L45.3122352,25.5598961 C45.7444377,25.9490655 45.7546312,26.6235518 45.3343864,27.0256042 L38.3343864,33.7225739 C38.1482805,33.9006233 37.9006524,34 37.6430936,34 L26.4999991,34 L26.5,45 C26.5,45.5128358 26.1139598,45.9355072 25.6166211,45.9932723 L25.5,46 L20.5,46 C19.9477153,46 19.5,45.5522847 19.5,45 L19.5,45 L19.4999991,34 L1.50201229,34 L1.39090433,33.9943126 C0.558596077,33.9079981 0.183300671,32.859877 0.821561186,32.2672065 L7.03309274,26.5 L0.821561186,20.7327935 C0.155550214,20.1143547 0.593146445,19 1.50201229,19 L19.4999991,19 L19.4999991,15 L8.49999913,15 C8.2853668,15 8.07763079,14.9309884 7.90664729,14.8049467 L7.80870634,14.7225739 L0.808706336,8.02560422 C0.388461512,7.62355182 0.398655009,6.94906553 0.830857551,6.55989614 L0.830857551,6.55989614 L7.83085755,0.256865838 C8.014504,0.0915045314 8.25287578,0 8.49999913,0 L8.49999913,0 Z M24.5,34 L21.5,34 L21.5,44 L24.5,44 L24.5,34 Z M37.2590927,21 L4.04909274,21 L9.18246338,25.7672065 L9.26724166,25.8560473 C9.60635478,26.2577485 9.57809536,26.8654209 9.18246338,27.2327935 L4.04809274,32 L37.2420927,32 L43.1730927,26.325 L37.2590927,21 Z M24.4999991,15 L21.4999991,15 L21.5,19 L24.5,19 L24.4999991,15 Z M42.094,2 L8.884,2 L2.97,7.325 L8.901,13 L42.095,13 L36.9606294,8.23279349 C36.5649974,7.86542095 36.536738,7.25774845 36.8758511,6.85604734 L36.8758511,6.85604734 L36.9606294,6.76720651 L42.094,2 Z" id="icons-docs-seealso" fill="#979797" fill-rule="nonzero"></path>
    </g>
</svg>