<?xml version="1.0" encoding="UTF-8"?>
<svg width="46px" height="46px" viewBox="0 0 46 46" version="1.1" xmlns="http://www.w3.org/2000/svg" xmlns:xlink="http://www.w3.org/1999/xlink">
    <!-- Generator: Sketch 63.1 (92452) - https://sketch.com -->
    <title>icons-docs-caution</title>
    <desc>Created with Sketch.</desc>
    <g id="Docs" stroke="none" stroke-width="1" fill="none" fill-rule="evenodd">
        <path d="M22.0463716,0.553762942 C22.4140914,-0.183687895 23.4658975,-0.18483532 23.8352254,0.551811464 L23.8352254,0.551811464 L45.8952254,44.5518115 C46.2286143,45.2167756 45.7451449,46 45.0012864,46 L45.0012864,46 L1.00128637,46 C0.258381203,46 -0.225140242,45.2185998 0.106371572,44.5537629 L0.106371572,44.5537629 Z M22.9432864,3.235 L2.61628637,44 L43.3812864,44 L22.9432864,3.235 Z M22.2927007,32.2933586 C22.6832182,31.9028275 23.3163831,31.9028165 23.7069142,32.2933339 L23.7069142,32.2933339 L26.7065136,35.2928286 C27.0970447,35.683346 27.0970557,36.316511 26.7065382,36.7070421 L26.7065382,36.7070421 L23.7070436,39.7066414 C23.3165262,40.0971725 22.6833612,40.0971836 22.2928301,39.7066661 L22.2928301,39.7066661 L19.2932307,36.7071715 C18.9026996,36.316654 18.9026886,35.683489 19.2932061,35.2929579 L19.2932061,35.2929579 Z M22.9994303,34.4150808 L21.4141245,36.0004419 L22.9994856,37.5857476 L24.5847913,36.0003866 L22.9994303,34.4150808 Z M26.0012864,16 C26.6192258,16 27.0892689,16.5548673 26.9876803,17.164399 L26.9876803,17.164399 L24.9876803,29.164399 C24.9073156,29.646587 24.4901255,30 24.0012864,30 L24.0012864,30 L22.0012864,30 C21.5124472,30 21.0952571,29.646587 21.0148924,29.164399 L21.0148924,29.164399 L19.0148924,17.164399 C18.9133038,16.5548673 19.3833469,16 20.0012864,16 L20.0012864,16 Z M24.8202864,18 L21.1812864,18 L22.8482864,28 L23.1532864,28 L24.8202864,18 Z" id="icons-docs-caution" fill="#FF814D" fill-rule="nonzero"></path>
    </g>
</svg>