<svg version="1.2" xmlns="http://www.w3.org/2000/svg" viewBox="0 0 218 36" width="218" height="36"><defs><clipPath clipPathUnits="userSpaceOnUse" id="cp1"><path d="m2.38 3.47h7.26v7.25h-7.26z"/></clipPath><clipPath clipPathUnits="userSpaceOnUse" id="cp2"><path d="m2.38 14.35h18.14v7.25h-18.14z"/></clipPath><clipPath clipPathUnits="userSpaceOnUse" id="cp3"><path d="m13.26 3.47h7.26v7.25h-7.26z"/></clipPath><clipPath clipPathUnits="userSpaceOnUse" id="cp4"><path d="m2.38 25.23h29.01v7.25h-29.01z"/></clipPath><clipPath clipPathUnits="userSpaceOnUse" id="cp5"><path d="m24.14 3.47h7.25v18.13h-7.25z"/></clipPath><clipPath clipPathUnits="userSpaceOnUse" id="cp6"><path d="m45.9 5.89h24.25v24.26h-24.25z"/></clipPath><clipPath clipPathUnits="userSpaceOnUse" id="cp7"><path d="m45.9 11.93v12.09c0 1.6 0.64 3.14 1.77 4.27 1.13 1.14 2.67 1.77 4.27 1.77h18.13v-4.83h-19.34v-14.51h19.34v-4.83h-18.13c-1.6 0-3.14 0.63-4.27 1.77-1.14 1.13-1.77 2.67-1.77 4.27z"/></clipPath><clipPath clipPathUnits="userSpaceOnUse" id="cp8"><path d="m75.51 11.92h13.95v18.23h-13.95z"/></clipPath><clipPath clipPathUnits="userSpaceOnUse" id="cp9"><path d="m80.33 14.95h-0.58l-0.61-3.02h-3.63v18.13h4.84v-11.48c0-0.64 0.25-1.26 0.71-1.71 0.45-0.46 1.06-0.71 1.71-0.71h6.64v-4.23h-6.04q-0.6-0.01-1.17 0.22-0.56 0.22-0.99 0.65-0.43 0.43-0.66 0.99-0.23 0.56-0.22 1.16z"/></clipPath><clipPath clipPathUnits="userSpaceOnUse" id="cp10"><path d="m91.65 11.92h19.99v18.23h-19.99z"/></clipPath><clipPath clipPathUnits="userSpaceOnUse" id="cp11"><path d="m108.58 12.28q0.9 0.37 1.59 1.05 0.69 0.68 1.06 1.57 0.37 0.9 0.38 1.87v13.29h-3.63l-0.6-2.42h-0.61c0 0.65-0.25 1.26-0.71 1.71-0.45 0.46-1.07 0.71-1.71 0.71h-6.96q-1.11 0.05-2.15-0.34-1.04-0.38-1.85-1.14-0.81-0.76-1.26-1.77-0.45-1.02-0.48-2.13c0.03-1.4 0.62-2.74 1.63-3.71 1.01-0.97 2.37-1.51 3.77-1.48h9.67v-3.63h-12.69v-3.93h12.68q0.97-0.01 1.87 0.35zm-3.68 14.15c0.48 0 0.94-0.19 1.28-0.53 0.35-0.34 0.54-0.8 0.54-1.28v-1.81h-8.76c-0.48 0-0.94 0.19-1.28 0.53-0.34 0.34-0.53 0.8-0.53 1.28 0 0.48 0.19 0.94 0.52 1.28 0.34 0.34 0.8 0.53 1.28 0.54h6.95z"/></clipPath><clipPath clipPathUnits="userSpaceOnUse" id="cp12"><path d="m115.4 5.89h15.81v24.26h-15.81z"/></clipPath><clipPath clipPathUnits="userSpaceOnUse" id="cp13"><path d="m125.07 5.89h-4.83v6.04h-4.84v4.23h4.84v8.46c0.04 1.47 0.66 2.86 1.73 3.88 1.06 1.01 2.48 1.56 3.95 1.54h5.2v-4.21h-6.05v-9.67h6.05v-4.23h-6.05z"/></clipPath><clipPath clipPathUnits="userSpaceOnUse" id="cp14"><path d="m134.74 11.93h19.99v18.22h-19.99z"/></clipPath><clipPath clipPathUnits="userSpaceOnUse" id="cp15"><path d="m152.92 13.7c1.13 1.13 1.77 2.67 1.77 4.27v4.84h-15.11v3.32h13.9v3.93h-12.69c-1.61 0-3.14-0.63-4.28-1.77-1.13-1.13-1.77-2.67-1.77-4.27v-6.05c0-1.6 0.64-3.14 1.77-4.27 1.14-1.13 2.67-1.77 4.28-1.77h7.85c1.61 0 3.14 0.64 4.28 1.77zm-2.45 5.79v-1.83c-0.01-0.48-0.2-0.94-0.54-1.27-0.34-0.34-0.8-0.53-1.27-0.53h-7.26c-0.48 0-0.94 0.19-1.28 0.53-0.34 0.34-0.53 0.8-0.53 1.28v1.82z"/></clipPath><clipPath clipPathUnits="userSpaceOnUse" id="cp16"><path d="m159.52 5.89h25.37v24.26h-25.37z"/></clipPath><clipPath clipPathUnits="userSpaceOnUse" id="cp17"><path d="m182.43 8.36c1.59 1.59 2.48 3.74 2.48 5.99v7.25c0 2.24-0.9 4.4-2.48 5.98-1.59 1.59-3.74 2.48-5.98 2.48h-16.93v-24.17h16.93c2.24 0 4.39 0.89 5.98 2.47zm-2.36 5.99c0-0.96-0.38-1.89-1.06-2.57-0.68-0.68-1.6-1.06-2.56-1.06h-12.09v14.51h12.08c0.97 0 1.89-0.38 2.57-1.07 0.68-0.68 1.06-1.6 1.06-2.56v-7.25z"/></clipPath><clipPath clipPathUnits="userSpaceOnUse" id="cp18"><path d="m189.74 5.95h26.6v24.2h-26.6z"/></clipPath><clipPath clipPathUnits="userSpaceOnUse" id="cp19"><path d="m216.09 21.05c0.37 1.44 0.29 2.95-0.22 4.33-0.51 1.39-1.44 2.59-2.65 3.44-1.21 0.84-2.66 1.3-4.14 1.3h-19.34v-24.17h18.13c1.33 0 2.63 0.36 3.76 1.05 1.14 0.69 2.06 1.68 2.67 2.86 0.61 1.18 0.89 2.5 0.8 3.83-0.09 1.32-0.54 2.59-1.3 3.68 1.12 0.96 1.92 2.25 2.29 3.68zm-21.51-5.49h13.29c0.65 0 1.26-0.26 1.71-0.71 0.46-0.45 0.71-1.07 0.71-1.71 0-0.64-0.25-1.26-0.71-1.71-0.45-0.45-1.06-0.71-1.71-0.71h-13.29zm16.2 8.76c0.44-0.5 0.68-1.14 0.68-1.81 0-0.66-0.24-1.31-0.68-1.8-0.43-0.5-1.04-0.83-1.7-0.92h-14.5v5.44h14.5c0.66-0.09 1.27-0.41 1.7-0.91z"/></clipPath></defs><style>.a{fill:#fff}</style><g clip-path="url(#cp1)"><path class="a" d="m2.4 3.5h7.2v7.2h-7.2z"/></g><g clip-path="url(#cp2)"><path class="a" d="m2.4 14.3h18.1v7.3h-18.1z"/></g><g clip-path="url(#cp3)"><path class="a" d="m13.3 3.5h7.2v7.2h-7.2z"/></g><g clip-path="url(#cp4)"><path class="a" d="m2.4 25.2h29v7.2h-29z"/></g><g clip-path="url(#cp5)"><path class="a" d="m24.1 3.5h7.2v18.1h-7.2z"/></g><g clip-path="url(#cp6)"><g clip-path="url(#cp7)"><path class="a" d="m45.9 5.9h24.2v24.2h-24.2z"/></g></g><g clip-path="url(#cp8)"><g clip-path="url(#cp9)"><path class="a" d="m75.5 11.9h14v18.2h-14z"/></g></g><g clip-path="url(#cp10)"><g clip-path="url(#cp11)"><path class="a" d="m91.7 11.9h19.9v18.2h-19.9z"/></g></g><g clip-path="url(#cp12)"><g clip-path="url(#cp13)"><path class="a" d="m115.4 5.9h15.7v24.2h-15.7z"/></g></g><g clip-path="url(#cp14)"><g clip-path="url(#cp15)"><path class="a" d="m134.7 11.9h20v18.2h-20z"/></g></g><g clip-path="url(#cp16)"><g clip-path="url(#cp17)"><path class="a" d="m159.5 5.9h25.4v24.2h-25.4z"/></g></g><g clip-path="url(#cp18)"><g clip-path="url(#cp19)"><path class="a" d="m189.7 5.9h26.8v24.2h-26.8z"/></g></g></svg>