<?xml version="1.0" encoding="UTF-8"?>
<svg width="218" height="36" viewBox="0 0 218 36" fill="none" xmlns="http://www.w3.org/2000/svg">
<rect width="218" height="36"/>
<g clip-path="url(#clip0_332_69507)">
<path d="M212.883 8.04694H200.601C199.244 8.04694 197.942 8.58608 196.982 9.54578C196.023 10.5055 195.484 11.8071 195.484 13.1643V23.399C195.484 24.7563 196.023 26.0579 196.982 27.0176C197.942 27.9773 199.244 28.5164 200.601 28.5164H212.883C214.24 28.5164 215.541 27.9773 216.501 27.0176C217.461 26.0579 218 24.7563 218 23.399V13.1643C218 11.8071 217.461 10.5055 216.501 9.54578C215.541 8.58608 214.24 8.04694 212.883 8.04694V8.04694ZM213.906 24.4225H199.577V12.1408H213.906V24.4225Z" fill="black"/>
<path d="M93.1361 14.6995C93.1334 12.936 92.4316 11.2454 91.1846 9.99842C89.9376 8.7514 88.247 8.04964 86.4835 8.04694H70.6196V28.5164H74.7135V21.3521H80.8544L87.5377 28.5164H93.1361L86.4221 21.3521H86.504C88.2639 21.344 89.9492 20.6399 91.1918 19.3934C92.4344 18.147 93.1334 16.4595 93.1361 14.6995V14.6995ZM74.7135 12.1408H86.4835C87.1621 12.1408 87.8129 12.4104 88.2927 12.8903C88.7726 13.3701 89.0422 14.0209 89.0422 14.6995C89.0422 15.3781 88.7726 16.0289 88.2927 16.5088C87.8129 16.9886 87.1621 17.2582 86.4835 17.2582H74.7135V12.1408Z" fill="black"/>
<path d="M115.652 8.04694H103.371C102.014 8.04694 100.712 8.58608 99.7523 9.54578C98.7926 10.5055 98.2534 11.8071 98.2534 13.1643V28.5164H102.347V22.3756H116.676V28.5164H120.77V13.1643C120.77 11.8071 120.231 10.5055 119.271 9.54578C118.311 8.58608 117.01 8.04694 115.652 8.04694V8.04694ZM102.347 18.2817V12.1408H116.676V18.2817H102.347Z" fill="black"/>
<path d="M124.864 12.1408H134.075V28.5164H138.169V12.1408H147.38V8.04694H124.864V12.1408Z" fill="black"/>
<path d="M151.474 10.0939V12.1408V16.2347V20.3286V24.4225V28.5164H155.568H171.944V24.4225H155.568V20.3286H169.897V16.2347H155.568V12.1408H171.944V8.04694H151.474V10.0939Z" fill="black"/>
<path d="M190.366 8.04694H186.272V28.5164H190.366V8.04694Z" fill="black"/>
<path d="M181.155 24.4225H177.061V28.5164H181.155V24.4225Z" fill="black"/>
<path d="M45.033 13.1541V23.3888C45.033 24.746 45.5721 26.0476 46.5318 27.0073C47.4915 27.967 48.7931 28.5061 50.1503 28.5061H65.5024V24.4123H49.1269V12.1306H65.5024V8.03668H50.1503C48.7931 8.03668 47.4915 8.57583 46.5318 9.53552C45.5721 10.4952 45.033 11.7968 45.033 13.1541V13.1541Z" fill="black"/>
<path d="M24.5634 14.1878V6H16.3756V14.1878H0V22.3756H8.18779V30.5634H16.3756V22.3756H32.7512V14.1878H24.5634Z" fill="#009DC7"/>
</g>
<defs>
<clipPath id="clip0_332_69507">
<rect width="218" height="24.5634" transform="translate(0 6)"/>
</clipPath>
</defs>
</svg>