<?xml version="1.0" encoding="UTF-8"?>
<svg id="Layer_1" data-name="Layer 1" xmlns="http://www.w3.org/2000/svg" viewBox="0 0 1871.89 249.64"><defs><style>.cls-1{fill:#fff;}</style></defs><title>1_LOGOTYPES</title><path class="cls-1" d="M1828,38.85H1722.49a43.94,43.94,0,0,0-43.94,43.94v87.88a43.94,43.94,0,0,0,43.94,43.94H1828a43.94,43.94,0,0,0,43.94-43.94V82.79A43.94,43.94,0,0,0,1828,38.85Zm8.78,140.61h-123V74h123Z"/><path class="cls-1" d="M799.73,96A57.21,57.21,0,0,0,742.6,38.85H606.39V214.61h35.15V153.09h52.73l57.38,61.52h48.08l-57.65-61.52h.7a57.21,57.21,0,0,0,57-57.12ZM641.54,74H742.6a22,22,0,1,1,0,43.94H641.54Z"/><path class="cls-1" d="M993.07,38.85H887.61a43.94,43.94,0,0,0-43.94,43.94V214.61h35.15V161.88h123v52.73H1037V82.79a43.94,43.94,0,0,0-43.94-43.94ZM878.82,126.73V74h123v52.73Z"/><path class="cls-1" d="M1072.16,74h79.09V214.61h35.16V74h79.09V38.85H1072.16Z"/><path class="cls-1" d="M1300.65,56.42V214.61h175.77V179.46H1335.81V144.31h123V109.15h-123V74h140.61V38.85H1300.65Z"/><path class="cls-1" d="M1634.61,38.85h-35.16V214.61h35.16Z"/><path class="cls-1" d="M1555.51,179.46h-35.15v35.15h35.15Z"/><path class="cls-1" d="M386.68,82.7v87.88a43.94,43.94,0,0,0,43.94,43.94H562.44V179.37H421.83V73.91H562.44V38.76H430.62A43.94,43.94,0,0,0,386.68,82.7Z"/><path class="cls-1" d="M210.92,91.58V21.27H140.61V91.58H0v70.3H70.31v70.31h70.3V161.88H281.22V91.58Z"/></svg>